<?xml version="1.0" encoding="UTF-8"?>
<svg height="24" width="24" version="1.1" xmlns="http://www.w3.org/2000/svg"
     xmlns:xlink="http://www.w3.org/1999/xlink" viewBox="0 0 512 512" xml:space="preserve">
  <style type="text/css">
    .st0 { fill: #000000; }
  </style>
  <g>
    <path class="st0" d="M256,0C114.625,0,0,114.625,0,256c0,141.374,114.625,256,256,256
      c141.374,0,256-114.626,256-256C512,114.625,397.374,0,256,0z M351.062,258.898l-144,85.945
      c-1.031,0.626-2.344,0.657-3.406,0.031c-1.031-0.594-1.687-1.702-1.687-2.937v-85.946v-85.946
      c0-1.218,0.656-2.343,1.687-2.938c1.062-0.609,2.375-0.578,3.406,0.031l144,85.962
      c1.031,0.586,1.641,1.718,1.641,2.89C352.703,257.187,352.094,258.297,351.062,258.898z"/>
  </g>
</svg>
